# xmcd
# 
# Track frame offsets:
#     150
#     18130
#     31905
#     46367
#     63945
#     91140
#     117732
#     131300
#     149225
#     162855
# 
# Disc length: 2407
# 
# Revision: 2
# Processed by: cddbd v1.5.2PL0 Copyright (c) Steve Scherf et al.
# Submitted via: fre:ac v1.0.17
# 
DISCID=8309650a
DTITLE=Various Artist - Moments In Love VOL 3
DYEAR=1992
DGENRE=Pop
TTITLE0=Godley and Creme - Cry
TTITLE1=Walker Brothers - The Sun Ain't Gonna Shine Anymore
TTITLE2=Moody Blues - Go Now
TTITLE3=Judie Tzuke - Stay With Me Till Dawn
TTITLE4=10 CC - I'm Not In Love
TTITLE5=John Miles - Music
TTITLE6=Stylistics - Na-Na Is The Saddest Word
TTITLE7=Kool And The Gang - Joanna
TTITLE8=Gloria Gaynor - Never Can Say Goodbye
TTITLE9=Kane Gang - Closest Thing To Heaven
EXTD=VOLUME 3\nPOLY GRAM YEAR: 1992
EXTT0=
EXTT1=
EXTT2=
EXTT3=
EXTT4=
EXTT5=
EXTT6=
EXTT7=
EXTT8=
EXTT9=
PLAYORDER=
